<svg width="128" height="86" viewBox="0 0 128 86" fill="none" xmlns="http://www.w3.org/2000/svg">
<rect width="128" height="86" rx="12" fill="#FF7E00"/>
<path d="M63.5468 32.2706C65.3144 32.8597 69.1607 34.1416 70.0128 31.4655C70.8825 28.7273 67.1352 27.6492 65.3004 27.1213C65.0925 27.0615 64.9091 27.0087 64.7598 26.9614L63.1168 32.1296C63.24 32.1684 63.3847 32.2166 63.5468 32.2706Z" fill="white"/>
<path d="M60.9807 40.5965C63.098 41.2985 67.7289 42.8336 68.6658 39.8846C69.6245 36.8694 65.1232 35.5631 62.9269 34.9258C62.6818 34.8546 62.4647 34.7916 62.2879 34.7357L60.476 40.4316C60.6209 40.4773 60.7909 40.5336 60.9807 40.5965Z" fill="white"/>
<path fill-rule="evenodd" clip-rule="evenodd" d="M87.9522 35.5002C87.1236 48.7286 75.7281 58.7808 62.4997 57.9522C49.2712 57.1237 39.2192 45.7283 40.0478 32.4998C40.8764 19.2714 52.2719 9.21923 65.5003 10.0478C78.7288 10.8763 88.7808 22.2717 87.9522 35.5002ZM70.3119 25.4613C73.572 26.8141 75.902 28.68 75.2241 31.8384C74.7306 34.1514 73.3608 35.1992 71.61 35.4865C73.9011 36.8628 74.5622 39.2439 73.6357 42.015C71.9579 45.9813 68.552 46.1108 64.1035 44.9812L62.7374 49.2722L60.1397 48.451L61.4872 44.2174C60.8137 44.0054 60.1259 43.7804 59.4178 43.5421L58.0645 47.7963L55.4699 46.9753L56.8351 42.6752L51.6037 41.0065L53.1034 38.0785C53.1034 38.0785 55.0168 38.714 54.9921 38.6749C55.7278 38.9059 56.0905 38.4415 56.2414 38.1277L59.9446 26.4808C60.0126 25.9243 59.8628 25.2083 58.8105 24.8748C58.8528 24.8489 56.9232 24.28 56.9232 24.28L57.8012 21.516L63.0415 23.1627L64.3946 18.9115L66.9907 19.7326L65.6655 23.8999C66.3651 24.1046 67.0676 24.3124 67.7499 24.5281L69.0659 20.3873L71.6635 21.2085L70.3119 25.4613Z" fill="white"/>
<path d="M11.2614 73L8.40909 68.1705H7.76705L6.96591 73H4.15341L6.08523 61.3636H8.89773L8.14773 65.8807H8.59659L12.9489 61.3636H16.4659L11.0795 66.858L14.767 73H11.2614ZM15.2656 76.2727L17.277 64.2727H20.027L19.7827 65.767H19.8679C20.0194 65.5019 20.2202 65.2462 20.4702 65C20.724 64.7538 21.0289 64.553 21.3849 64.3977C21.741 64.2386 22.1482 64.1591 22.6065 64.1591C23.2126 64.1591 23.7524 64.3182 24.2259 64.6364C24.6993 64.9545 25.044 65.4451 25.2599 66.108C25.4759 66.7708 25.4986 67.6155 25.3281 68.642C25.1652 69.6307 24.8698 70.4583 24.4418 71.125C24.0175 71.7917 23.5137 72.2917 22.9304 72.625C22.3471 72.9583 21.7353 73.125 21.0952 73.125C20.6558 73.125 20.2846 73.053 19.9815 72.9091C19.6823 72.7652 19.4455 72.5758 19.2713 72.3409C19.0971 72.1061 18.9759 71.8542 18.9077 71.5852H18.8281L18.0554 76.2727H15.2656ZM19.2713 68.6364C19.1955 69.1061 19.1918 69.5152 19.2599 69.8636C19.3281 70.2121 19.4664 70.483 19.6747 70.6761C19.8868 70.8655 20.1615 70.9602 20.4986 70.9602C20.8395 70.9602 21.1425 70.8655 21.4077 70.6761C21.6766 70.483 21.902 70.2121 22.0838 69.8636C22.2656 69.5152 22.3982 69.1061 22.4815 68.6364C22.5535 68.1667 22.5554 67.7595 22.4872 67.4148C22.4228 67.0701 22.2884 66.803 22.0838 66.6136C21.8793 66.4242 21.6046 66.3295 21.2599 66.3295C20.9228 66.3295 20.616 66.4223 20.3395 66.608C20.0668 66.7936 19.8395 67.0587 19.6577 67.4034C19.4759 67.7481 19.3471 68.1591 19.2713 68.6364ZM29.304 69.4034L32.9517 64.2727H35.6222L34.1676 73H31.5369L32.3949 67.8523L28.7585 73H26.0767L27.5312 64.2727H30.1676L29.304 69.4034ZM35.9517 73L37.4062 64.2727H45.2926L43.8381 73H41.2017L42.3097 66.3977H39.6562L38.5483 73H35.9517ZM45.9375 66.3977L46.2898 64.2727H54.4716L54.1193 66.3977H51.3295L50.2273 73H47.5966L48.6989 66.3977H45.9375ZM58.1435 73.1648C57.223 73.1648 56.4635 72.9754 55.8651 72.5966C55.2704 72.2178 54.8518 71.6894 54.6094 71.0114C54.367 70.3333 54.3196 69.5455 54.4673 68.6477C54.6151 67.7538 54.92 66.9697 55.3821 66.2955C55.8442 65.6212 56.4351 65.0966 57.1548 64.7216C57.8745 64.3466 58.6908 64.1591 59.6037 64.1591C60.5204 64.1591 61.276 64.3485 61.8707 64.7273C62.4692 65.1061 62.8897 65.6345 63.1321 66.3125C63.3783 66.9905 63.4276 67.7803 63.2798 68.6818C63.1321 69.5758 62.8253 70.3598 62.3594 71.0341C61.8935 71.7045 61.3026 72.2273 60.5866 72.6023C59.8707 72.9773 59.0563 73.1648 58.1435 73.1648ZM58.456 71.0682C58.7969 71.0682 59.1018 70.9659 59.3707 70.7614C59.6435 70.5568 59.8726 70.2708 60.0582 69.9034C60.2438 69.536 60.3764 69.1098 60.456 68.625C60.5355 68.1477 60.5431 67.7292 60.4787 67.3693C60.4181 67.0057 60.2893 66.7235 60.0923 66.5227C59.8954 66.3182 59.6283 66.2159 59.2912 66.2159C58.9503 66.2159 58.6435 66.3201 58.3707 66.5284C58.098 66.733 57.8688 67.0189 57.6832 67.3864C57.5014 67.75 57.3707 68.1761 57.2912 68.6648C57.2116 69.142 57.2022 69.5606 57.2628 69.9205C57.3234 70.2803 57.4541 70.5625 57.6548 70.767C57.8556 70.9678 58.1226 71.0682 58.456 71.0682ZM63.9986 73L65.4531 64.2727H69.2259C70.3433 64.2727 71.1918 64.4754 71.7713 64.8807C72.3546 65.2822 72.5819 65.8712 72.4531 66.6477C72.3774 67.0985 72.1312 67.4867 71.7145 67.8125C71.2978 68.1345 70.7448 68.3523 70.0554 68.4659C70.6425 68.4962 71.1141 68.6136 71.4702 68.8182C71.8262 69.0227 72.0743 69.2822 72.2145 69.5966C72.3584 69.911 72.4001 70.2462 72.3395 70.6023C72.2562 71.1174 72.0459 71.553 71.7088 71.9091C71.3755 72.2652 70.9266 72.536 70.3622 72.7216C69.7978 72.9072 69.1274 73 68.3509 73H63.9986ZM66.9134 70.9886H68.6804C68.9796 70.9886 69.2259 70.9186 69.419 70.7784C69.6122 70.6345 69.7277 70.4413 69.7656 70.1989C69.8149 69.9337 69.7656 69.7254 69.6179 69.5739C69.474 69.4223 69.2524 69.3466 68.9531 69.3466H67.1861L66.9134 70.9886ZM67.4418 67.8409H68.7031C68.9001 67.8409 69.0762 67.8106 69.2315 67.75C69.3868 67.6894 69.5137 67.6023 69.6122 67.4886C69.7107 67.375 69.7713 67.2386 69.794 67.0795C69.8319 66.8485 69.7675 66.6667 69.6009 66.5341C69.438 66.4015 69.1955 66.3352 68.8736 66.3352H67.6861L67.4418 67.8409ZM75.7472 73.1477C75.1941 73.1477 74.7169 73.0549 74.3153 72.8693C73.9176 72.6799 73.6259 72.3939 73.4403 72.0114C73.2585 71.6288 73.215 71.1515 73.3097 70.5795C73.393 70.0947 73.5464 69.6875 73.7699 69.358C73.9972 69.0246 74.2756 68.7538 74.6051 68.5455C74.9384 68.3371 75.3097 68.178 75.7188 68.0682C76.1278 67.9583 76.5559 67.8845 77.0028 67.8466C77.5028 67.8011 77.9081 67.7519 78.2188 67.6989C78.5331 67.6458 78.768 67.572 78.9233 67.4773C79.0786 67.3788 79.1733 67.2424 79.2074 67.0682V67.0398C79.2528 66.7481 79.1903 66.5227 79.0199 66.3636C78.8494 66.2045 78.5938 66.125 78.2528 66.125C77.8892 66.125 77.5786 66.2045 77.321 66.3636C77.0634 66.5227 76.8835 66.7424 76.7812 67.0227L74.2358 66.9318C74.3949 66.4015 74.6676 65.928 75.054 65.5114C75.4403 65.0909 75.9309 64.7614 76.5256 64.5227C77.1241 64.2803 77.8153 64.1591 78.5994 64.1591C79.1525 64.1591 79.6525 64.2254 80.0994 64.358C80.5464 64.4867 80.9233 64.6761 81.2301 64.9261C81.5407 65.1723 81.7623 65.4754 81.8949 65.8352C82.0275 66.1951 82.0559 66.6061 81.9801 67.0682L80.9858 73H78.3722L78.5767 71.7841H78.5085C78.304 72.0795 78.0634 72.3295 77.7869 72.5341C77.5142 72.7386 77.2074 72.892 76.8665 72.9943C76.5256 73.0966 76.1525 73.1477 75.7472 73.1477ZM76.9176 71.3295C77.2093 71.3295 77.4858 71.2689 77.7472 71.1477C78.0085 71.0265 78.2282 70.8598 78.4062 70.6477C78.5881 70.4318 78.7036 70.1818 78.7528 69.8977L78.8835 69.0682C78.804 69.1098 78.7036 69.1477 78.5824 69.1818C78.4612 69.2159 78.3324 69.2481 78.196 69.2784C78.0597 69.3049 77.9195 69.3314 77.7756 69.358C77.6354 69.3807 77.5009 69.4015 77.3722 69.4205C77.0994 69.4621 76.8627 69.5265 76.6619 69.6136C76.4612 69.7008 76.3002 69.8144 76.179 69.9545C76.0616 70.0909 75.9896 70.2538 75.9631 70.4432C75.9176 70.7273 75.9839 70.947 76.1619 71.1023C76.34 71.2538 76.5919 71.3295 76.9176 71.3295ZM82.2585 73L82.5881 70.858H82.8722C83.0616 70.858 83.2339 70.8087 83.3892 70.7102C83.5445 70.6117 83.6884 70.4545 83.821 70.2386C83.9574 70.0189 84.0824 69.7367 84.196 69.392C84.3097 69.0473 84.4176 68.6288 84.5199 68.1364L85.2983 64.2727H92.2074L90.7528 73H88.1222L89.2244 66.3977H87.4233L86.8722 68.9091C86.7131 69.6477 86.5104 70.2784 86.2642 70.8011C86.018 71.3201 85.7339 71.7405 85.4119 72.0625C85.0938 72.3845 84.7396 72.6212 84.3494 72.7727C83.9593 72.9242 83.535 73 83.0767 73H82.2585ZM98.3764 67.6023L98.0298 69.7386H93.2514L93.6037 67.6023H98.3764ZM96.2855 64.2727L94.831 73H92.0526L93.5071 64.2727H96.2855ZM100.058 73.1648C99.1643 73.1648 98.4295 72.9697 97.8537 72.5795C97.2779 72.1894 96.8764 71.6534 96.6491 70.9716C96.4219 70.286 96.3802 69.5038 96.5241 68.625C96.6681 67.7538 96.9673 66.983 97.4219 66.3125C97.8764 65.6383 98.456 65.1117 99.1605 64.733C99.8651 64.3504 100.664 64.1591 101.558 64.1591C102.448 64.1591 103.179 64.3504 103.751 64.733C104.327 65.1117 104.731 65.6383 104.962 66.3125C105.193 66.983 105.234 67.7538 105.087 68.625C104.943 69.5038 104.642 70.286 104.183 70.9716C103.729 71.6534 103.149 72.1894 102.445 72.5795C101.744 72.9697 100.948 73.1648 100.058 73.1648ZM100.422 70.9602C100.823 70.9602 101.161 70.8636 101.433 70.6705C101.706 70.4773 101.926 70.2064 102.092 69.858C102.259 69.5057 102.38 69.0947 102.456 68.625C102.536 68.1591 102.549 67.7538 102.496 67.4091C102.443 67.0644 102.31 66.7992 102.098 66.6136C101.89 66.4242 101.587 66.3295 101.189 66.3295C100.791 66.3295 100.452 66.4223 100.172 66.608C99.8954 66.7936 99.6738 67.0587 99.5071 67.4034C99.3404 67.7443 99.2173 68.1515 99.1378 68.625C99.0582 69.1023 99.045 69.5152 99.098 69.8636C99.151 70.2121 99.2855 70.483 99.5014 70.6761C99.7173 70.8655 100.024 70.9602 100.422 70.9602ZM106.172 66.3977L106.524 64.2727H114.706L114.354 66.3977H111.564L110.462 73H107.831L108.933 66.3977H106.172ZM116.747 73.1477C116.194 73.1477 115.717 73.0549 115.315 72.8693C114.918 72.6799 114.626 72.3939 114.44 72.0114C114.259 71.6288 114.215 71.1515 114.31 70.5795C114.393 70.0947 114.546 69.6875 114.77 69.358C114.997 69.0246 115.276 68.7538 115.605 68.5455C115.938 68.3371 116.31 68.178 116.719 68.0682C117.128 67.9583 117.556 67.8845 118.003 67.8466C118.503 67.8011 118.908 67.7519 119.219 67.6989C119.533 67.6458 119.768 67.572 119.923 67.4773C120.079 67.3788 120.173 67.2424 120.207 67.0682V67.0398C120.253 66.7481 120.19 66.5227 120.02 66.3636C119.849 66.2045 119.594 66.125 119.253 66.125C118.889 66.125 118.579 66.2045 118.321 66.3636C118.063 66.5227 117.884 66.7424 117.781 67.0227L115.236 66.9318C115.395 66.4015 115.668 65.928 116.054 65.5114C116.44 65.0909 116.931 64.7614 117.526 64.5227C118.124 64.2803 118.815 64.1591 119.599 64.1591C120.152 64.1591 120.652 64.2254 121.099 64.358C121.546 64.4867 121.923 64.6761 122.23 64.9261C122.541 65.1723 122.762 65.4754 122.895 65.8352C123.027 66.1951 123.056 66.6061 122.98 67.0682L121.986 73H119.372L119.577 71.7841H119.509C119.304 72.0795 119.063 72.3295 118.787 72.5341C118.514 72.7386 118.207 72.892 117.866 72.9943C117.526 73.0966 117.152 73.1477 116.747 73.1477ZM117.918 71.3295C118.209 71.3295 118.486 71.2689 118.747 71.1477C119.009 71.0265 119.228 70.8598 119.406 70.6477C119.588 70.4318 119.704 70.1818 119.753 69.8977L119.884 69.0682C119.804 69.1098 119.704 69.1477 119.582 69.1818C119.461 69.2159 119.332 69.2481 119.196 69.2784C119.06 69.3049 118.92 69.3314 118.776 69.358C118.635 69.3807 118.501 69.4015 118.372 69.4205C118.099 69.4621 117.863 69.5265 117.662 69.6136C117.461 69.7008 117.3 69.8144 117.179 69.9545C117.062 70.0909 116.99 70.2538 116.963 70.4432C116.918 70.7273 116.984 70.947 117.162 71.1023C117.34 71.2538 117.592 71.3295 117.918 71.3295Z" fill="white"/>
</svg>
