<svg width="128" height="86" viewBox="0 0 128 86" fill="none" xmlns="http://www.w3.org/2000/svg">
<rect width="128" height="86" rx="12" fill="#D7FFD8"/>
<path d="M102.131 29H83.6487C84.7253 35.1009 90.6468 40.843 97.1066 40.843H111.821C112 40.3047 112 39.4075 112 38.8692C112 33.486 107.514 29 102.131 29Z" fill="#27B1E6"/>
<path d="M85.2634 41.9194V56.8129H94.2354V48.9176H102.131C106.437 48.9176 110.205 45.8671 111.462 41.9194H85.2634Z" fill="#4FAD50"/>
<path d="M53.6821 29V56.6337H61.5775C61.5775 56.6337 63.5513 56.6337 64.6279 54.6598C70.0111 44.0729 71.6261 40.843 71.6261 40.843H72.7027V56.6337H81.6747V29H73.7794C73.7794 29 71.8055 29.1795 70.7289 30.9738C66.2429 40.1252 63.7307 44.7907 63.7307 44.7907H62.6541V29H53.6821Z" fill="#4FAD50"/>
<path d="M16 56.8128V29.1792H24.972C24.972 29.1792 27.4841 29.1792 28.9197 33.1269C32.5084 43.5343 32.8673 44.9699 32.8673 44.9699C32.8673 44.9699 33.5851 42.4577 36.815 33.1269C38.2505 29.1792 40.7627 29.1792 40.7627 29.1792H49.7346V56.8128H40.7627V41.9194H39.686L34.6617 56.8128H30.714L25.6898 41.9194H24.6131V56.8128H16Z" fill="#4FAD50"/>
</svg>
