<svg width="128" height="86" viewBox="0 0 128 86" fill="none" xmlns="http://www.w3.org/2000/svg">
<rect width="128" height="86" rx="12" fill="#03A9F4"/>
<path fill-rule="evenodd" clip-rule="evenodd" d="M10.7 47V55.2C10.7 55.7 10.5 56 9.9 56H6.8C6.2 56 6 55.7 6 55.2V30.8C6 30.2 6.2 30 6.8 30H16C20.4 30.1 23.7 33.4 23.9 37.8C23.9 40.1 23.5 42.3 22 44.1C21.2716 44.9913 20.3572 45.7127 19.3208 46.2136C18.2843 46.7146 17.151 46.9829 16 47H10.7ZM10.7 43C12.1333 43.0044 13.5667 43.0044 15 43C16.2 43.1 17.2 42.6 18 41.7C18.548 41.0636 18.9268 40.2994 19.1016 39.478C19.2764 38.6566 19.2414 37.8044 19 37C18.4 35 17 33.9 14.9 33.9H10.8V43H10.7ZM40 55.2C40.3 55.8 40.7 56.2 41.4 56.1H44C44.8 56.1 45.1 55.7 44.7 54.9L33.8 30.7C33.6 30.2 33.3 30.1 32.8 30.1C32.4 30.1 32.2 30.3 32 30.7L26 43.5L20.8 54.8C20.5 55.6 20.8 56 21.6 56H24.3C25.1 56 25.3 55.8 25.7 55L26.1 54.1L27.2 51.4C27.3 51.1 27.5 51 27.9 51H37.8C38.2 51 38.4 51 38.5 51.4L39.5 54L40 55.1V55.2ZM29.2 47.2H36.5C35.2623 44.5354 34.0289 41.8687 32.8 39.2C31.594 41.864 30.394 44.5306 29.2 47.2ZM58.6 30.6L52.9 39L51.2 36.6L47.2 30.6L46.5 30.2H42.7C42.2 30.2 41.9 30.7 42.1 31.2L46.8 38C48.0358 39.9985 49.2691 41.9985 50.5 44V55C50.5 55.8 50.7 56 51.4 56H54.2C55 56 55.2 55.8 55.2 55V44.1C55.2 43.7 55.3 43.3 55.5 43L63.5 31.4C63.7 31.1 63.9 30.8 63.7 30.4C63.5 30.1 63.1 30.1 62.7 30.1H59.7C59.2 30.1 58.9 30.2 58.7 30.6H58.6ZM116.6 45.6L117 46.3C118.569 49.2323 120.135 52.1656 121.7 55.1C121.7 55.5 121.5 55.9 121.1 55.9H117.1C116.8 55.9 116.7 55.6 116.5 55.3C115.1 52.3 113.5 49.3 112.2 46.3C112 46 111.8 45.9 111.3 45.9H108.3C108 45.9 107.8 46 107.8 46.4V55C107.8 55.9 107.8 56 106.8 56H104.1C103.4 56 103.2 55.8 103.2 55.1V31C103.2 30.3 103.4 30.1 104.1 30.1H114.3C118.1 30.1 121.2 32.6 121.8 36.2C122.6 40.1 120.9 43.7 117.2 45.5L116.6 45.7V45.6ZM107.9 42.1H113.7C114.4 42.1 115.1 41.9 115.7 41.5C117 40.5 117.7 38.5 117.2 36.7C117.012 35.8453 116.527 35.0849 115.831 34.554C115.135 34.023 114.274 33.7559 113.4 33.8H107.9V42.1ZM70.7 33.8V41.1H79.4C80.1 41.1 80.4 41.3 80.4 42.1V44.1C80.4 44.7 80.1 44.9 79.4 44.9H70.7V52.2H81.1C81.9 52.2 82.1 52.4 82.1 53.2V55C82.1 55.7 81.9 55.9 81.2 55.9H66.8C66.3 55.9 66.1 55.7 66 55.3V31.1C66 30.1 66.2 30.1 67 30.1H81C82 30.1 82.1 30.1 82.1 31.1V32.9C82.1 33.6 81.9 33.9 81.1 33.9H70.8L70.7 33.8ZM84.7 43V31C84.7 30.2 84.9 30 85.7 30H99.9C100.6 30 100.8 30.2 100.8 30.9V32.9C100.8 33.6 100.6 33.9 99.9 33.9H90C89.3 33.9 89.3 33.9 89.3 34.5V40.5C89.3 41 89.4 41.1 89.8 41.1H98C99 41.1 99.1 41.2 99.1 42.1V44.1C99.1 44.7 98.9 44.9 98.3 44.9H89.9C89.6 44.9 89.4 44.9 89.4 45.4V51.7C89.4 52.1 89.6 52.2 89.9 52.2H99.9C100.7 52.2 100.9 52.3 100.9 53.2V55.2C100.9 55.8 100.7 56 100 56H85.7C84.9 56 84.7 55.8 84.7 55V43Z" fill="white"/>
</svg>
