<svg width="128" height="86" viewBox="0 0 128 86" fill="none" xmlns="http://www.w3.org/2000/svg">
<g clip-path="url(#clip0_48_100)">
<rect width="128" height="86" rx="12" fill="#43B748"/>
<path d="M-13 43C-13 14.27 4.22875 -9 25.5 -9H102.5C123.755 -9 141 14.27 141 43C141 71.7083 123.755 95 102.5 95H25.5C4.22875 95 -13 71.7083 -13 43Z" fill="url(#paint0_linear_48_100)"/>
<path d="M-13 43C-13 14.27 4.22875 -9 25.5 -9H102.5C123.755 -9 141 14.27 141 43C141 71.7083 123.755 95 102.5 95H25.5C4.22875 95 -13 71.7083 -13 43Z" fill="url(#paint1_radial_48_100)" fill-opacity="0.2"/>
<path d="M-13 43C-13 14.27 4.22875 -9 25.5 -9H102.5C123.755 -9 141 14.27 141 43C141 71.7083 123.755 95 102.5 95H25.5C4.22875 95 -13 71.7083 -13 43Z" fill="url(#paint2_radial_48_100)"/>
<path d="M-13 43C-13 14.27 4.22875 -9 25.5 -9H102.5C123.755 -9 141 14.27 141 43C141 71.7083 123.755 95 102.5 95H25.5C4.22875 95 -13 71.7083 -13 43Z" fill="url(#paint3_radial_48_100)"/>
<path d="M63.9295 46.5954V54.1089H59.7006V29.9917H67.5793C75.0541 29.9917 78.2325 32.7201 78.2325 38.1633C78.2325 43.771 74.5154 46.5954 67.5793 46.5954H63.9295ZM63.9295 33.9541V42.633H67.9026C71.8218 42.633 73.8554 41.3305 73.8554 38.0536C73.8554 35.0921 72.0911 33.9541 67.9699 33.9541H63.9295ZM80.4682 38.0948C81.5861 37.2447 83.6063 36.5454 86.5288 36.5454C91.4716 36.5454 93.8958 38.273 93.8958 42.7427V54.1089H90.1787V51.0103C89.3706 52.9983 87.31 54.3831 84.6029 54.3831C81.182 54.3831 79.1484 52.4225 79.1484 49.0496C79.1484 45.1147 81.9632 44.0178 86.1248 44.0178H89.9362V43.2637C89.9362 40.8095 88.7915 40.0554 86.5288 40.0554C83.4177 40.0554 81.6265 41.2894 80.4682 43.1266V38.0948ZM89.9362 48.035V46.6365H86.5962C84.2527 46.6365 83.1349 47.089 83.1349 48.6246C83.1349 49.9408 84.0911 50.7635 85.842 50.7635C88.5221 50.7635 89.7746 49.2142 89.9362 48.035ZM95.8487 36.8882H100.266L104.899 48.6932L108.684 36.8882H112.886L106.125 55.9324C104.63 60.0594 103.108 60.9917 100.872 60.9917C99.8218 60.9917 98.6635 60.6901 98.1652 60.2376V56.4809C98.7174 57.0293 99.4447 57.3309 100.199 57.3446C101.411 57.3446 102.327 56.522 102.973 54.2049L95.8487 36.8882ZM24.8857 38.1085V43.4008L31.7679 47.7882L48.2527 35.4349C47.6736 34.1323 46.9463 32.9121 46.0844 31.7741L31.7679 42.4959L24.8857 38.1085Z" fill="white"/>
<path d="M45.7203 42.6145V42.9894C45.7203 46.0827 44.689 49.0823 42.7871 51.5329C40.8824 53.971 38.2164 55.7016 35.2139 56.449C32.2114 57.1965 29.045 56.9178 26.2192 55.6574C23.3932 54.3852 21.0761 52.2159 19.6296 49.4841C18.1871 46.7485 17.697 43.6106 18.2366 40.5656C18.7858 37.5125 20.3394 34.7405 22.6431 32.6783C24.9493 30.6145 27.8811 29.3834 30.9696 29.182C34.058 28.9805 37.1249 29.8202 39.6798 31.5668L43.2023 28.9957C40.0274 26.4293 36.0746 25.0176 31.9919 24.9918C27.9068 24.9784 23.9423 26.3443 20.7278 28.8752C17.5224 31.4041 15.2733 34.9486 14.3507 38.9254C13.4281 42.9023 13.8869 47.0747 15.6517 50.7562C17.4093 54.439 20.3677 57.4143 24.0407 59.1933C27.7137 60.9722 31.8827 61.449 35.8626 60.5451C39.8444 59.6436 43.4011 57.4146 45.948 54.2245C48.4928 51.0374 49.8857 47.0737 49.8857 42.9894C49.8857 41.9181 49.7786 40.8334 49.5911 39.7622L45.7203 42.6145Z" fill="white"/>
</g>
<defs>
<linearGradient id="paint0_linear_48_100" x1="-10.4911" y1="-9" x2="141.343" y2="-8.32419" gradientUnits="userSpaceOnUse">
<stop stop-color="#1EDB01"/>
<stop offset="1" stop-color="#00C746"/>
</linearGradient>
<radialGradient id="paint1_radial_48_100" cx="0" cy="0" r="1" gradientTransform="matrix(-82.3073 -110.874 99.6641 -134.969 103.92 94.8657)" gradientUnits="userSpaceOnUse">
<stop stop-color="#00A7FA"/>
<stop offset="1" stop-color="#00A7FA" stop-opacity="0"/>
</radialGradient>
<radialGradient id="paint2_radial_48_100" cx="0" cy="0" r="1" gradientTransform="matrix(-61.8567 0.0451967 -0.0418046 -104.34 110.672 93.3122)" gradientUnits="userSpaceOnUse">
<stop stop-color="#00A7FA"/>
<stop offset="1" stop-color="#00A7FA" stop-opacity="0"/>
</radialGradient>
<radialGradient id="paint3_radial_48_100" cx="0" cy="0" r="1" gradientTransform="matrix(45.7829 61.6741 -55.3098 74.901 1.553 5.28917)" gradientUnits="userSpaceOnUse">
<stop stop-color="#FAED01"/>
<stop offset="1" stop-color="#FAED01" stop-opacity="0"/>
</radialGradient>
<clipPath id="clip0_48_100">
<rect width="128" height="86" rx="12" fill="white"/>
</clipPath>
</defs>
</svg>
