<svg width="128" height="86" viewBox="0 0 128 86" fill="none" xmlns="http://www.w3.org/2000/svg">
<rect width="128" height="86" rx="12" fill="#0F0737"/>
<g clip-path="url(#clip0_48_227)">
<path d="M20.8324 43.4946L15.2164 46.7285L10 55.7511L31.2652 43.4946H20.8324Z" fill="#8F4794"/>
<path d="M36.8812 34.2565L31.2652 37.4904L26.0488 46.5129L47.314 34.2565H36.8812Z" fill="#E40646"/>
<path d="M31.2652 31.0226L26.0488 22V40.4871V46.5129V65L31.2652 55.9774V31.0226Z" fill="#F9B429"/>
<path d="M26.0488 22L31.2652 31.0226L36.8812 34.2565H47.314L26.0488 22Z" fill="#EF8019"/>
<path d="M26.0488 40.4871V65L31.2652 55.9774V49.5096L26.0488 40.4871Z" fill="#78B72A"/>
<path d="M36.8812 52.7435L31.2652 55.9774L26.0488 65L47.314 52.7435H36.8812Z" fill="#00853F"/>
<path d="M10 31.249V55.7512L15.2164 46.7394V40.2608L10 31.249Z" fill="#5B57A2"/>
<path d="M26.0488 40.4872L26.0596 40.498L10 31.249L15.2164 40.2608L36.8812 52.7436H47.314L26.0488 40.4872Z" fill="#0698D6"/>
<path d="M109.155 47.5154H109.824V48.6472H110.451C110.742 48.6472 110.98 48.6796 111.174 48.755C111.369 48.8305 111.52 48.9275 111.628 49.0461C111.747 49.1647 111.822 49.3048 111.876 49.4665C111.92 49.6282 111.952 49.7899 111.952 49.9516C111.952 50.1241 111.93 50.2857 111.876 50.4474C111.822 50.6091 111.736 50.7493 111.617 50.8786C111.498 51.008 111.336 51.105 111.131 51.1805C110.926 51.2559 110.678 51.299 110.386 51.299H109.166V47.5154H109.155ZM109.824 49.2725V50.663H110.31C110.645 50.663 110.883 50.6091 111.023 50.4906C111.164 50.372 111.228 50.1995 111.228 49.9731C111.228 49.7468 111.164 49.5743 111.023 49.4557C110.883 49.3371 110.645 49.2832 110.321 49.2832H109.824V49.2725ZM112.665 47.5154H113.334V51.2883H112.665V47.5154Z" fill="white"/>
<path d="M116.564 49.3371L118 51.2883H117.179L116.067 49.7575L114.944 51.2883H114.166L115.592 49.3695L114.242 47.5154H115.062L116.088 48.9383L117.136 47.5154H117.914L116.564 49.3371Z" fill="white"/>
<path d="M58.0169 50.7493C57.8549 50.9541 57.6389 51.1158 57.3905 51.2236C57.1313 51.3314 56.8613 51.3853 56.5697 51.3853C56.2673 51.3853 55.9973 51.3422 55.7489 51.2452C55.5005 51.1481 55.2845 51.0188 55.1117 50.8463C54.9281 50.6738 54.7985 50.469 54.6905 50.2211C54.5933 49.9732 54.5393 49.7037 54.5393 49.4126C54.5393 49.1431 54.5825 48.8844 54.6797 48.6365C54.7769 48.3993 54.9065 48.1837 55.0793 48.0113C55.2521 47.8388 55.4573 47.6987 55.6841 47.5909C55.9217 47.4831 56.1701 47.4399 56.4509 47.4399C56.7533 47.4399 57.0341 47.4831 57.2825 47.5585C57.5417 47.634 57.7577 47.7633 57.9305 47.9358L57.6173 48.464C57.4553 48.3239 57.2825 48.2161 57.0989 48.1622C56.9153 48.1083 56.7317 48.0759 56.5265 48.0759C56.3537 48.0759 56.1917 48.1083 56.0405 48.173C55.8785 48.2376 55.7489 48.3239 55.6193 48.4424C55.5005 48.561 55.4033 48.7012 55.3385 48.8629C55.2737 49.0245 55.2305 49.2078 55.2305 49.4126C55.2305 49.6174 55.2629 49.8007 55.3385 49.9732C55.4141 50.1349 55.5113 50.275 55.6301 50.3936C55.7489 50.5121 55.9001 50.5984 56.0621 50.6631C56.2241 50.7277 56.4077 50.7601 56.5913 50.7601C56.8181 50.7601 57.0233 50.717 57.2069 50.6307C57.3905 50.5445 57.5417 50.4259 57.6713 50.275L58.0169 50.7493Z" fill="white"/>
<path d="M58.8916 51.2883V47.5154H59.5612V50.3289L61.7536 47.5154H62.4232V51.2883H61.7536V48.4748L59.572 51.2883H58.8916Z" fill="white"/>
<path d="M66.8729 50.7493C66.7109 50.9541 66.4949 51.1158 66.2465 51.2236C65.9873 51.3314 65.7173 51.3853 65.4257 51.3853C65.1233 51.3853 64.8533 51.3422 64.6049 51.2452C64.3565 51.1481 64.1405 51.0188 63.9677 50.8463C63.7949 50.6738 63.6545 50.469 63.5465 50.2211C63.4493 49.9732 63.3953 49.7037 63.3953 49.4126C63.3953 49.1431 63.4385 48.8844 63.5357 48.6365C63.6329 48.3993 63.7625 48.1837 63.9353 48.0113C64.1081 47.8388 64.3133 47.6987 64.5401 47.5909C64.7777 47.4831 65.0261 47.4399 65.3069 47.4399C65.6093 47.4399 65.8901 47.4831 66.1385 47.5585C66.3977 47.634 66.6137 47.7633 66.7865 47.9358L66.4733 48.464C66.3113 48.3239 66.1385 48.2161 65.9549 48.1622C65.7713 48.1083 65.5877 48.0759 65.3825 48.0759C65.2097 48.0759 65.0477 48.1083 64.8965 48.173C64.7345 48.2376 64.6049 48.3239 64.4753 48.4424C64.3565 48.561 64.2593 48.7012 64.1945 48.8629C64.1297 49.0245 64.0865 49.2078 64.0865 49.4126C64.0865 49.6174 64.1189 49.8007 64.1945 49.9732C64.2701 50.1349 64.3673 50.275 64.4861 50.3936C64.6049 50.5121 64.7561 50.5984 64.9181 50.6631C65.0801 50.7277 65.2637 50.7601 65.4473 50.7601C65.6741 50.7601 65.8793 50.717 66.0629 50.6307C66.2465 50.5445 66.3977 50.4259 66.5273 50.275L66.8729 50.7493Z" fill="white"/>
<path d="M67.2185 47.5154H70.6637V48.1837H69.2705V51.2883H68.6009V48.1837H67.2185V47.5154Z" fill="white"/>
<path d="M74.4761 50.8786C74.2925 51.051 74.0657 51.1696 73.8173 51.2559C73.5581 51.3421 73.3097 51.3744 73.0613 51.3744C72.7481 51.3744 72.4781 51.3313 72.2297 51.2343C71.9813 51.1373 71.7653 51.0079 71.5925 50.8354C71.4197 50.663 71.2793 50.4582 71.1821 50.2102C71.0849 49.9623 71.0417 49.6928 71.0417 49.4018C71.0417 49.1323 71.0849 48.8736 71.1713 48.6256C71.2577 48.3885 71.3873 48.1729 71.5493 48.0004C71.7113 47.8279 71.9165 47.6878 72.1541 47.58C72.3917 47.4722 72.6725 47.4291 72.9857 47.4291C73.2233 47.4291 73.4501 47.4722 73.6661 47.5584C73.8821 47.6447 74.0657 47.7632 74.2277 47.9142C74.3897 48.0651 74.5085 48.2483 74.6057 48.4639C74.7029 48.6795 74.7461 48.9167 74.7461 49.1646C74.7461 49.3371 74.7353 49.488 74.7029 49.6173H71.7761C71.8085 49.9731 71.9381 50.2533 72.1757 50.4474C72.4133 50.6414 72.7265 50.7492 73.0937 50.7492C73.3421 50.7492 73.5689 50.7169 73.7633 50.6306C73.9685 50.5552 74.1305 50.4582 74.2493 50.3504L74.4761 50.8786ZM72.9425 48.0543C72.5969 48.0543 72.3161 48.1513 72.1109 48.3346C71.9057 48.5286 71.7761 48.7658 71.7437 49.0568H74.0441C74.0225 48.7442 73.9253 48.4963 73.7309 48.313C73.5365 48.1513 73.2665 48.0543 72.9425 48.0543Z" fill="white"/>
<path d="M75.6533 47.5154H76.2689L77.7161 49.3803L79.0985 47.5046H79.6925V51.2775H79.0229V48.5287L77.7161 50.2858H77.6945L76.3337 48.5287V51.2775H75.6641V47.5154H75.6533Z" fill="white"/>
<path d="M80.9452 47.774C81.118 47.6662 81.3016 47.58 81.5284 47.5261C81.7444 47.4614 81.9712 47.4291 82.2088 47.4291C82.7488 47.4291 83.116 47.5584 83.332 47.8279C83.548 48.0974 83.656 48.4747 83.656 48.9706V51.2882H83.0296V50.8031C82.9216 50.9432 82.7704 51.0726 82.576 51.1804C82.3816 51.2882 82.1332 51.3421 81.82 51.3421C81.4744 51.3421 81.1936 51.2451 80.9776 51.0403C80.7616 50.8354 80.6536 50.5444 80.6536 50.1779C80.6536 49.9839 80.686 49.8222 80.7616 49.6605C80.8372 49.5095 80.9344 49.3802 81.064 49.2832C81.1936 49.1862 81.3448 49.1107 81.5176 49.0568C81.6904 49.0029 81.8848 48.9813 82.09 48.9813C82.2304 48.9813 82.3924 49.0029 82.576 49.0352C82.7488 49.0676 82.9 49.1323 83.0296 49.2293C83.0296 49.0568 83.0188 48.8951 82.9972 48.7442C82.9756 48.5933 82.9432 48.4747 82.8784 48.3669C82.8244 48.2591 82.7272 48.1837 82.6192 48.119C82.5004 48.0651 82.3492 48.0327 82.1656 48.0327C81.928 48.0327 81.7336 48.0543 81.5824 48.1082C81.4312 48.1621 81.28 48.2268 81.1288 48.3022L80.9452 47.774ZM82.0468 50.7492C82.2952 50.7492 82.4896 50.6953 82.6516 50.5875C82.8028 50.4797 82.9324 50.3719 83.0296 50.2641V49.7898C82.792 49.6173 82.5112 49.5419 82.1764 49.5419C82.0792 49.5419 81.9712 49.5527 81.874 49.585C81.7768 49.6066 81.6904 49.6497 81.6148 49.6928C81.5392 49.7467 81.4744 49.8114 81.4312 49.8868C81.388 49.9623 81.3664 50.0593 81.3664 50.1671C81.3664 50.3504 81.4204 50.4905 81.5392 50.5983C81.658 50.6845 81.82 50.7492 82.0468 50.7492Z" fill="white"/>
<path d="M89.9634 45.8554C89.8446 46.0063 89.715 46.1141 89.5854 46.1787C89.445 46.2434 89.3046 46.2865 89.1426 46.3189C88.9806 46.3512 88.8078 46.3836 88.6242 46.4159C88.4406 46.4482 88.2462 46.5129 88.041 46.6099C87.8574 46.6854 87.717 46.7932 87.5982 46.9333C87.4794 47.0627 87.393 47.2136 87.3174 47.3861C87.2418 47.5478 87.1878 47.731 87.1554 47.9035C87.123 48.076 87.0906 48.2592 87.0798 48.4425H87.1014C87.1662 48.3131 87.2418 48.1838 87.3498 48.0867C87.4578 47.9789 87.5658 47.8927 87.7062 47.8065C87.8358 47.731 87.9762 47.6663 88.1274 47.6232C88.2786 47.5801 88.4406 47.5585 88.6026 47.5585C88.8726 47.5585 89.1102 47.6017 89.337 47.6879C89.553 47.7741 89.7366 47.9035 89.8878 48.0652C90.039 48.2269 90.1578 48.4317 90.2334 48.6581C90.3198 48.8844 90.3522 49.1431 90.3522 49.4342C90.3522 49.6929 90.309 49.9408 90.2118 50.178C90.1146 50.4151 89.985 50.62 89.8122 50.7924C89.6394 50.9649 89.4342 51.105 89.1966 51.2128C88.959 51.3206 88.6998 51.3637 88.4082 51.3637C88.095 51.3637 87.825 51.3099 87.5766 51.2021C87.3282 51.0943 87.123 50.9326 86.9502 50.7385C86.7774 50.5337 86.6478 50.2858 86.5506 49.9947C86.4534 49.7037 86.4102 49.3803 86.4102 49.0138C86.4102 48.7335 86.4318 48.4425 86.4642 48.1406C86.4966 47.8388 86.5614 47.5478 86.6694 47.2675C86.7774 46.9872 86.907 46.7393 87.0906 46.5129C87.2742 46.2865 87.5118 46.1141 87.8142 45.9847C88.0302 45.8877 88.2354 45.823 88.4082 45.7907C88.5918 45.7583 88.7538 45.7368 88.8942 45.7044C89.0346 45.6829 89.1642 45.6398 89.283 45.5966C89.4018 45.5535 89.5098 45.4565 89.607 45.3271L89.9634 45.8554ZM87.123 49.1539C87.123 49.4019 87.1554 49.6174 87.2202 49.8223C87.285 50.0163 87.3714 50.1888 87.4794 50.3181C87.5874 50.4583 87.7278 50.5661 87.879 50.6415C88.041 50.717 88.203 50.7601 88.3866 50.7601C88.5702 50.7601 88.743 50.7277 88.8942 50.6631C89.0454 50.5984 89.175 50.5014 89.283 50.3936C89.391 50.275 89.4774 50.1457 89.5422 49.9947C89.607 49.8438 89.6394 49.6713 89.6394 49.4989C89.6394 49.1324 89.5314 48.8198 89.3262 48.5826C89.121 48.3347 88.8186 48.2161 88.4298 48.2161C88.2462 48.2161 88.0842 48.2484 87.9438 48.3023C87.8034 48.3562 87.6738 48.4317 87.555 48.5179C87.447 48.6042 87.3498 48.712 87.2742 48.8198C87.1986 48.906 87.1554 49.0246 87.123 49.1539Z" fill="white"/>
<path d="M91.324 47.5154H91.9936V48.6472H92.62C92.9116 48.6472 93.1492 48.6796 93.3436 48.755C93.538 48.8305 93.6892 48.9275 93.7972 49.0461C93.916 49.1647 93.9916 49.3048 94.0456 49.4665C94.0888 49.6282 94.1212 49.7899 94.1212 49.9516C94.1212 50.1241 94.0996 50.2857 94.0456 50.4474C93.9916 50.6091 93.9052 50.7493 93.7864 50.8786C93.6676 51.008 93.5056 51.105 93.3004 51.1805C93.0952 51.2559 92.8468 51.299 92.5552 51.299H91.324V47.5154ZM91.9936 49.2725V50.663H92.4796C92.8144 50.663 93.052 50.6091 93.1924 50.4906C93.3328 50.372 93.3976 50.1995 93.3976 49.9731C93.3976 49.7468 93.3328 49.5743 93.1924 49.4557C93.052 49.3371 92.8144 49.2832 92.4904 49.2832H91.9936V49.2725ZM94.834 47.5154H95.5036V51.2883H94.834V47.5154Z" fill="white"/>
<path d="M99.9532 50.7493C99.7912 50.9541 99.5752 51.1158 99.3268 51.2236C99.0676 51.3314 98.7976 51.3853 98.506 51.3853C98.2036 51.3853 97.9336 51.3422 97.6852 51.2452C97.4368 51.1481 97.2208 51.0188 97.048 50.8463C96.8644 50.6738 96.7348 50.469 96.6268 50.2211C96.5296 49.9732 96.4756 49.7037 96.4756 49.4126C96.4756 49.1431 96.5188 48.8844 96.616 48.6365C96.7132 48.3993 96.8428 48.1837 97.0156 48.0113C97.1884 47.8388 97.3936 47.6987 97.6204 47.5909C97.858 47.4831 98.1064 47.4399 98.3872 47.4399C98.6896 47.4399 98.9704 47.4831 99.2188 47.5585C99.478 47.634 99.694 47.7633 99.8668 47.9358L99.5536 48.464C99.3916 48.3239 99.2188 48.2161 99.0352 48.1622C98.8516 48.1083 98.668 48.0759 98.4628 48.0759C98.29 48.0759 98.128 48.1083 97.9768 48.173C97.8148 48.2376 97.6852 48.3239 97.5556 48.4424C97.4368 48.561 97.3396 48.7012 97.2748 48.8629C97.21 49.0245 97.1668 49.2078 97.1668 49.4126C97.1668 49.6174 97.1992 49.8007 97.2748 49.9732C97.3504 50.1349 97.4476 50.275 97.5664 50.3936C97.6852 50.5121 97.8364 50.5984 97.9984 50.6631C98.1604 50.7277 98.344 50.7601 98.5276 50.7601C98.7544 50.7601 98.9596 50.717 99.1432 50.6307C99.3268 50.5445 99.478 50.4259 99.6076 50.275L99.9532 50.7493Z" fill="white"/>
<path d="M100.299 47.5154H103.744V48.1837H102.351V51.2883H101.681V48.1837H100.299V47.5154Z" fill="white"/>
<path d="M104.478 47.5153H105.148V47.9573C105.278 47.8064 105.461 47.677 105.688 47.58C105.926 47.483 106.174 47.4291 106.433 47.4291C106.703 47.4291 106.941 47.4722 107.157 47.5692C107.373 47.6662 107.556 47.7956 107.708 47.9681C107.859 48.1405 107.978 48.3346 108.053 48.5717C108.14 48.8089 108.172 49.0676 108.172 49.3479C108.172 49.6281 108.129 49.8976 108.032 50.1455C107.934 50.3935 107.805 50.6091 107.632 50.7923C107.459 50.9756 107.254 51.1157 107.006 51.2235C106.768 51.3313 106.498 51.3744 106.196 51.3744C105.99 51.3744 105.796 51.3529 105.612 51.3097C105.429 51.2666 105.267 51.202 105.126 51.1157V52.9698H104.457V47.5153H104.478ZM106.239 48.0543C106.012 48.0543 105.807 48.1082 105.612 48.2052C105.418 48.3022 105.267 48.4316 105.148 48.5717V50.4474C105.321 50.5552 105.483 50.6414 105.645 50.6738C105.807 50.7169 105.98 50.7384 106.152 50.7384C106.358 50.7384 106.541 50.7061 106.703 50.6306C106.865 50.566 107.006 50.4689 107.114 50.3504C107.222 50.2318 107.308 50.0809 107.373 49.9192C107.438 49.7467 107.47 49.5634 107.47 49.3694C107.47 49.1754 107.448 49.0029 107.394 48.8412C107.34 48.6795 107.265 48.5394 107.157 48.4208C107.049 48.3022 106.919 48.216 106.768 48.1513C106.606 48.0866 106.433 48.0543 106.239 48.0543Z" fill="white"/>
<path d="M57.52 55.9558H55.4572V59.1034H54.7876V55.3306H58.1896V59.1034H57.52V55.9558Z" fill="white"/>
<path d="M62.0021 55.9989H60.6737L60.6305 56.6349C60.5873 57.1739 60.5225 57.6051 60.4253 57.9393C60.3389 58.2734 60.2309 58.5214 60.1013 58.7046C59.9717 58.8879 59.8205 59.0065 59.6585 59.0604C59.4857 59.125 59.3129 59.1574 59.1077 59.1574L59.0537 58.4998C59.1293 58.5106 59.2049 58.489 59.3021 58.4459C59.3993 58.4028 59.4857 58.3166 59.5829 58.1656C59.6693 58.0255 59.7557 57.8207 59.8313 57.5512C59.9069 57.2817 59.9501 56.9368 59.9717 56.4948L60.0365 55.3198H62.6717V59.0927H62.0021V55.9989Z" fill="white"/>
<path d="M63.9137 55.5893C64.0865 55.4815 64.2701 55.3953 64.4969 55.3414C64.7129 55.2767 64.9397 55.2444 65.1773 55.2444C65.7173 55.2444 66.0845 55.3737 66.3005 55.6432C66.5165 55.9127 66.6245 56.29 66.6245 56.7859V59.1035H65.9981V58.6184C65.8901 58.7586 65.7389 58.8879 65.5445 58.9957C65.3501 59.1035 65.1017 59.1574 64.7885 59.1574C64.4429 59.1574 64.1621 59.0604 63.9461 58.8556C63.7301 58.6508 63.6221 58.3597 63.6221 57.9932C63.6221 57.7992 63.6545 57.6375 63.7301 57.4758C63.8057 57.3249 63.9029 57.1955 64.0325 57.0985C64.1621 57.0015 64.3133 56.926 64.4861 56.8721C64.6589 56.8182 64.8533 56.7967 65.0585 56.7967C65.1989 56.7967 65.3609 56.8182 65.5445 56.8506C65.7173 56.8829 65.8685 56.9476 65.9981 57.0446C65.9981 56.8721 65.9873 56.7104 65.9657 56.5595C65.9441 56.4086 65.9117 56.29 65.8469 56.1822C65.7929 56.0744 65.6957 55.999 65.5877 55.9343C65.4689 55.8804 65.3177 55.848 65.1341 55.848C64.8965 55.848 64.7021 55.8696 64.5509 55.9235C64.3997 55.9774 64.2485 56.0421 64.0973 56.1175L63.9137 55.5893ZM65.0153 58.5645C65.2637 58.5645 65.4581 58.5106 65.6201 58.4028C65.7713 58.295 65.9009 58.1872 65.9981 58.0794V57.6051C65.7605 57.4327 65.4797 57.3572 65.1449 57.3572C65.0477 57.3572 64.9397 57.368 64.8425 57.4003C64.7453 57.4219 64.6589 57.465 64.5833 57.5081C64.5077 57.562 64.4429 57.6267 64.3997 57.7021C64.3565 57.7776 64.3349 57.8746 64.3349 57.9824C64.3349 58.1657 64.3889 58.3058 64.5077 58.4136C64.6265 58.5106 64.7993 58.5645 65.0153 58.5645Z" fill="white"/>
<path d="M67.2832 55.3306H70.7284V55.9989H69.3352V59.1034H68.6656V55.9989H67.2832V55.3306Z" fill="white"/>
<path d="M74.5301 58.6939C74.3465 58.8663 74.1197 58.9849 73.8713 59.0712C73.6121 59.1574 73.3637 59.1897 73.1153 59.1897C72.8021 59.1897 72.5321 59.1466 72.2837 59.0496C72.0353 58.9526 71.8193 58.8232 71.6465 58.6508C71.4737 58.4783 71.3333 58.2735 71.2361 58.0255C71.1389 57.7776 71.0957 57.5081 71.0957 57.2171C71.0957 56.9476 71.1389 56.6889 71.2253 56.4409C71.3117 56.2038 71.4413 55.9882 71.6033 55.8157C71.7653 55.6432 71.9705 55.5031 72.2081 55.3953C72.4457 55.2875 72.7265 55.2444 73.0397 55.2444C73.2773 55.2444 73.5041 55.2875 73.7201 55.3737C73.9361 55.46 74.1197 55.5786 74.2817 55.7295C74.4437 55.8804 74.5625 56.0636 74.6597 56.2792C74.7569 56.4948 74.8001 56.732 74.8001 56.9799C74.8001 57.1524 74.7893 57.3033 74.7569 57.4327H71.8517C71.8841 57.7884 72.0137 58.0687 72.2513 58.2627C72.4889 58.4567 72.8021 58.5645 73.1693 58.5645C73.4177 58.5645 73.6445 58.5322 73.8389 58.4459C74.0441 58.3705 74.2061 58.2735 74.3249 58.1657L74.5301 58.6939ZM72.9965 55.8804C72.6509 55.8804 72.3701 55.9774 72.1649 56.1607C71.9597 56.3547 71.8301 56.5918 71.7977 56.8829H74.0981C74.0765 56.5703 73.9793 56.3224 73.7849 56.1391C73.5905 55.9666 73.3313 55.8804 72.9965 55.8804Z" fill="white"/>
<path d="M75.1241 55.3306H75.9773L77.2733 57.1523L75.8801 59.1034H75.0593L76.5173 57.1523L75.1241 55.3306ZM77.4353 55.3306H78.1049V59.1034H77.4353V55.3306ZM79.0337 57.1523L80.5133 59.1034H79.6817L78.2777 57.1523L79.5845 55.3306H80.4161L79.0337 57.1523Z" fill="white"/>
<path d="M84.2393 58.6939C84.0557 58.8663 83.8289 58.9849 83.5805 59.0712C83.3213 59.1574 83.0729 59.1897 82.8245 59.1897C82.5113 59.1897 82.2413 59.1466 81.9929 59.0496C81.7445 58.9526 81.5285 58.8232 81.3557 58.6508C81.1829 58.4783 81.0425 58.2735 80.9453 58.0255C80.8481 57.7776 80.8049 57.5081 80.8049 57.2171C80.8049 56.9476 80.8481 56.6889 80.9345 56.4409C81.0209 56.2038 81.1505 55.9882 81.3125 55.8157C81.4745 55.6432 81.6797 55.5031 81.9173 55.3953C82.1549 55.2875 82.4357 55.2444 82.7489 55.2444C82.9865 55.2444 83.2133 55.2875 83.4293 55.3737C83.6453 55.46 83.8289 55.5786 83.9909 55.7295C84.1529 55.8804 84.2717 56.0636 84.3689 56.2792C84.4661 56.4948 84.5093 56.732 84.5093 56.9799C84.5093 57.1524 84.4985 57.3033 84.4661 57.4327H81.5609C81.5933 57.7884 81.7229 58.0687 81.9605 58.2627C82.1981 58.4567 82.5113 58.5645 82.8785 58.5645C83.1269 58.5645 83.3537 58.5322 83.5481 58.4459C83.7533 58.3705 83.9153 58.2735 84.0341 58.1657L84.2393 58.6939ZM82.7057 55.8804C82.3601 55.8804 82.0793 55.9774 81.8741 56.1607C81.6689 56.3547 81.5393 56.5918 81.5069 56.8829H83.8073C83.7857 56.5703 83.6885 56.3224 83.4941 56.1391C83.2997 55.9666 83.0405 55.8804 82.7057 55.8804Z" fill="white"/>
<path d="M85.4165 59.1034V55.3306H86.0861V58.144L88.2785 55.3306H88.9481V59.1034H88.2785V56.2899L86.0861 59.1034H85.4165ZM86.5829 53.401C86.6153 53.843 86.8313 54.0693 87.2309 54.0693C87.6089 54.0693 87.8141 53.8537 87.8465 53.401H88.4729C88.4729 53.5735 88.4405 53.7244 88.3865 53.8645C88.3325 54.0047 88.2461 54.134 88.1381 54.231C88.0301 54.3388 87.9005 54.4143 87.7493 54.479C87.5981 54.5436 87.4253 54.576 87.2309 54.576C87.0257 54.576 86.8421 54.5436 86.6801 54.479C86.5181 54.4143 86.3885 54.3388 86.2805 54.231C86.1725 54.1232 86.0969 54.0047 86.0321 53.8645C85.9781 53.7244 85.9457 53.5627 85.9457 53.401H86.5829Z" fill="white"/>
<path d="M65.6136 35.7273H62.4091C62.3864 35.4621 62.3258 35.2216 62.2273 35.0057C62.1326 34.7898 62 34.6042 61.8295 34.4489C61.6629 34.2898 61.4602 34.1686 61.2216 34.0852C60.983 33.9981 60.7121 33.9545 60.4091 33.9545C59.8788 33.9545 59.4299 34.0833 59.0625 34.3409C58.6989 34.5985 58.4223 34.9678 58.233 35.4489C58.0473 35.9299 57.9545 36.5076 57.9545 37.1818C57.9545 37.8939 58.0492 38.4905 58.2386 38.9716C58.4318 39.4489 58.7102 39.8087 59.0739 40.0511C59.4375 40.2898 59.875 40.4091 60.3864 40.4091C60.678 40.4091 60.9394 40.3731 61.1705 40.3011C61.4015 40.2254 61.6023 40.1174 61.7727 39.9773C61.9432 39.8371 62.0814 39.6686 62.1875 39.4716C62.2973 39.2708 62.3712 39.0455 62.4091 38.7955L65.6136 38.8182C65.5758 39.3106 65.4375 39.8125 65.1989 40.3239C64.9602 40.8314 64.6212 41.3011 64.1818 41.733C63.7462 42.161 63.2064 42.5057 62.5625 42.767C61.9186 43.0284 61.1705 43.1591 60.3182 43.1591C59.25 43.1591 58.2917 42.9299 57.4432 42.4716C56.5985 42.0133 55.9299 41.339 55.4375 40.4489C54.9489 39.5587 54.7045 38.4697 54.7045 37.1818C54.7045 35.8864 54.9545 34.7955 55.4545 33.9091C55.9545 33.0189 56.6288 32.3466 57.4773 31.892C58.3258 31.4337 59.2727 31.2045 60.3182 31.2045C61.053 31.2045 61.7292 31.3049 62.3466 31.5057C62.964 31.7064 63.5057 32 63.9716 32.3864C64.4375 32.7689 64.8125 33.2405 65.0966 33.8011C65.3807 34.3617 65.553 35.0038 65.6136 35.7273ZM67.0469 43V31.3636H75.2287V33.9091H70.206V35.2727H71.3878C72.3651 35.2727 73.2192 35.4299 73.9503 35.7443C74.6851 36.0587 75.2552 36.5019 75.6605 37.0739C76.0696 37.6458 76.2741 38.3182 76.2741 39.0909C76.2741 39.8636 76.0696 40.5436 75.6605 41.1307C75.2552 41.7178 74.6851 42.1761 73.9503 42.5057C73.2192 42.8352 72.3651 43 71.3878 43H67.0469ZM70.206 40.5227H71.3878C71.7666 40.5227 72.0848 40.4602 72.3423 40.3352C72.6037 40.2102 72.8007 40.0379 72.9332 39.8182C73.0696 39.5985 73.1378 39.3485 73.1378 39.0682C73.1378 38.6705 72.9882 38.3409 72.6889 38.0795C72.3897 37.8144 71.956 37.6818 71.3878 37.6818H70.206V40.5227ZM88.0724 31.3636V43H84.9588V33.8636H81.027V43H77.9134V31.3636H88.0724Z" fill="white"/>
</g>
<defs>
<clipPath id="clip0_48_227">
<rect width="108" height="43" fill="white" transform="translate(10 22)"/>
</clipPath>
</defs>
</svg>
