<svg width="529" height="129" viewBox="0 0 529 129" fill="none" xmlns="http://www.w3.org/2000/svg">
<path d="M153.041 59.5072C153.041 59.5072 150.699 107.926 161.175 107.765C171.65 107.603 203.735 55.5589 213.464 59.3042C217.12 64.181 215.854 112.762 226.246 107.765C235.308 103.407 270.401 59.3042 270.401 59.3042" stroke="#171F26" stroke-width="24.0035" stroke-miterlimit="10" stroke-linecap="round" stroke-linejoin="round"/>
<path d="M312.232 59.3042C311.321 59.9538 290.154 107.765 290.154 107.765" stroke="#171F26" stroke-width="22.2974" stroke-miterlimit="1.5" stroke-linecap="round" stroke-linejoin="round"/>
<path d="M409.834 65.6846C409.834 65.6846 347.972 48.8034 337.222 88.4833C336.224 119.999 411.582 102.462 408.696 103.404" stroke="#171F26" stroke-width="22.2974" stroke-miterlimit="1.5" stroke-linecap="round" stroke-linejoin="round"/>
<path d="M437.728 107.765C450.897 78.4823 464.066 49.1996 477.235 19.9169" stroke="#171F26" stroke-width="22.2974" stroke-miterlimit="1.5" stroke-linecap="round" stroke-linejoin="round"/>
<path d="M509.162 103.404C501.627 97.9155 486.557 86.9374 457.482 66.9305C458.83 60.0042 497.775 61.2333 517.247 61.8481" stroke="#171F26" stroke-width="22.2974" stroke-miterlimit="1.5" stroke-linecap="round" stroke-linejoin="round"/>
<path d="M0.440735 64.0701C0.440735 17.4737 17.9144 0 64.5109 0C111.107 0 128.581 17.4737 128.581 64.0701C128.581 110.667 111.107 128.14 64.5109 128.14C17.9144 128.14 0.440735 110.667 0.440735 64.0701Z" fill="url(#paint0_linear_28_16)"/>
<path fill-rule="evenodd" clip-rule="evenodd" d="M57.0003 51.4714L73.1646 15.3324C75.7824 9.47949 82.361 6.99444 87.8581 9.78185L89.2076 10.4662C94.7044 13.2534 97.0386 20.2574 94.4208 26.1104L83.0775 51.4714H108.711C115.208 51.4714 120.483 57.0877 120.483 64.0051C120.483 70.9225 115.208 76.5386 108.711 76.5386H71.8652L55.6973 112.686C53.0795 118.539 46.5011 121.024 41.0041 118.237L39.6543 117.553C34.1574 114.765 31.8236 107.761 34.4411 101.908L45.7885 76.5386H20.1311C13.6341 76.5386 8.3595 70.9225 8.3595 64.0051C8.3595 57.0877 13.6341 51.4714 20.1311 51.4714H57.0003Z" fill="#171F26"/>
<defs>
<linearGradient id="paint0_linear_28_16" x1="0.440737" y1="4.32464" x2="120.575" y2="131.385" gradientUnits="userSpaceOnUse">
<stop stop-color="#1AFD04"/>
<stop offset="0.5" stop-color="#19FF62"/>
<stop offset="1" stop-color="#3EEFF4"/>
</linearGradient>
</defs>
</svg>
