<svg width="529" height="129" viewBox="0 0 529 129" fill="none" xmlns="http://www.w3.org/2000/svg">
<path d="M153.041 59.5072C153.041 59.5072 150.699 107.926 161.175 107.765C171.65 107.603 203.735 55.5589 213.464 59.3042C217.12 64.181 215.854 112.762 226.246 107.765C235.308 103.407 270.401 59.3042 270.401 59.3042" stroke="white" stroke-width="24.0035" stroke-miterlimit="10" stroke-linecap="round" stroke-linejoin="round"/>
<path d="M312.232 59.3042C311.321 59.9538 290.154 107.765 290.154 107.765" stroke="white" stroke-width="22.2974" stroke-miterlimit="1.5" stroke-linecap="round" stroke-linejoin="round"/>
<path d="M409.834 65.6846C409.834 65.6846 347.972 48.8034 337.222 88.4833C336.224 119.999 411.582 102.462 408.696 103.404" stroke="white" stroke-width="22.2974" stroke-miterlimit="1.5" stroke-linecap="round" stroke-linejoin="round"/>
<path d="M437.728 107.765C450.897 78.4823 464.066 49.1996 477.235 19.9169" stroke="white" stroke-width="22.2974" stroke-miterlimit="1.5" stroke-linecap="round" stroke-linejoin="round"/>
<path d="M509.162 103.404C501.627 97.9155 486.557 86.9374 457.482 66.9305C458.83 60.0042 497.775 61.2333 517.247 61.8481" stroke="white" stroke-width="22.2974" stroke-miterlimit="1.5" stroke-linecap="round" stroke-linejoin="round"/>
<path d="M64.511 0C111.107 4.16045e-05 128.581 17.4739 128.581 64.0703C128.581 110.667 111.107 128.141 64.511 128.141C17.9146 128.141 0.440776 110.667 0.440735 64.0703C0.440735 17.4738 17.9146 0 64.511 0ZM87.8577 9.78223C82.3607 6.99494 75.7822 9.4793 73.1644 15.332L57.0003 51.4717H20.1312C13.6342 51.4717 8.35979 57.0876 8.35968 64.0049C8.35968 70.9223 13.6342 76.5391 20.1312 76.5391H45.7884L34.4407 101.908C31.8233 107.761 34.1578 114.766 39.6546 117.553L41.0042 118.236C46.5012 121.023 53.0798 118.539 55.6976 112.687L71.8655 76.5391H108.711C115.208 76.539 120.483 70.9222 120.483 64.0049C120.483 57.0876 115.208 51.4718 108.711 51.4717H83.0775L94.4212 26.1104C97.0388 20.2574 94.7041 13.253 89.2073 10.4658L87.8577 9.78223Z" fill="url(#paint0_linear_71_2)"/>
<defs>
<linearGradient id="paint0_linear_71_2" x1="0.440737" y1="4.32464" x2="120.575" y2="131.385" gradientUnits="userSpaceOnUse">
<stop stop-color="#1AFD04"/>
<stop offset="0.5" stop-color="#19FF62"/>
<stop offset="1" stop-color="#3EEFF4"/>
</linearGradient>
</defs>
</svg>
