<svg width="128" height="86" viewBox="0 0 128 86" fill="none" xmlns="http://www.w3.org/2000/svg">
<rect width="128" height="86" rx="12" fill="#8B3FFD"/>
<path d="M106.398 43.069C106.398 40.1253 104.088 37.744 100.825 37.744C97.6272 37.744 95.3499 40.0338 95.3499 43.18C95.3499 46.342 97.6917 48.6475 101.052 48.6475C103.184 48.6475 104.976 47.728 106.091 45.859L103.83 44.8465C103.297 45.781 102.134 46.3885 101.052 46.3885C99.679 46.3885 98.0962 45.3918 97.999 44.0058H106.317C106.37 43.6961 106.397 43.3829 106.398 43.069ZM98.0472 42.169C98.2416 40.7673 99.2426 39.8485 100.842 39.8485C102.425 39.8485 103.394 40.7485 103.523 42.169H98.0472Z" fill="white"/>
<path d="M75.2614 37.7417C71.9823 37.7417 69.6567 40.0164 69.6567 43.2249C69.6567 46.4019 71.9823 48.6452 75.2941 48.6452C78.6214 48.6452 80.947 46.4019 80.947 43.2714C80.947 40.0472 78.5568 37.7417 75.2614 37.7417ZM75.2941 46.2617C73.646 46.2617 72.6286 45.0782 72.6286 43.2399C72.6286 41.3709 73.6623 40.0937 75.2941 40.0937C76.9414 40.0937 77.9751 41.3552 77.9751 43.2399C77.9751 45.0939 76.9577 46.2617 75.2941 46.2617Z" fill="white"/>
<path d="M63.5855 37.7448C62.2422 37.7448 61.2303 38.1873 60.2185 39.2846H59.8863C59.2066 38.2938 58.0975 37.7448 56.853 37.7448C56.2317 37.739 55.6178 37.8755 55.0619 38.1432C54.506 38.4109 54.024 38.8021 53.6556 39.2846H53.3235L53.3071 39.2696V37.9586H50.5273V48.4166H53.5311V43.0346C53.5311 41.2968 54.2902 40.2753 55.6023 40.2753C56.8196 40.2753 57.6098 41.1446 57.6098 42.4706V48.4166H60.6291V43.0346C60.6291 41.3096 61.3882 40.2753 62.7167 40.2753C63.9176 40.2753 64.6922 41.1446 64.6922 42.4863V48.4166H67.7123V42.1353C67.7123 39.4068 66.1941 37.7448 63.5855 37.7448Z" fill="white"/>
<path d="M113.078 44.7895H112.863C112.863 44.6035 111.553 41.2915 110.695 39.2395L110.158 37.9563H107.132L111.425 48.451L109.733 52.45H112.739L118.921 37.96H115.893L115.399 39.0573L113.725 43.0525C113.253 44.1685 113.059 44.686 113.078 44.7895Z" fill="white"/>
<path d="M89.2779 37.7448C87.9339 37.7448 86.7796 38.3088 86.005 39.3153H85.6884L85.6573 39.3003V37.9585H82.876V48.4165H85.8798V43.0653C85.8798 41.3583 86.7353 40.2903 88.1408 40.2903C89.4529 40.2903 90.4173 41.2353 90.4173 42.7293V48.4158H93.4211V42.1053C93.4211 39.544 91.682 37.7448 89.2779 37.7448Z" fill="white"/>
<path d="M30.1269 31.75C23.6371 31.75 18.4221 36.8125 18.4221 43C18.4221 49.2385 23.6885 54.25 30.1253 54.25C36.5622 54.25 41.8332 49.1875 41.8332 43C41.8332 36.8125 36.5638 31.75 30.1269 31.75ZM30.1269 47.1933C27.7329 47.1933 25.7651 45.301 25.7651 43C25.7651 40.699 27.7329 38.8068 30.1269 38.8068C32.5209 38.8068 34.4895 40.699 34.4895 43C34.4358 45.301 32.5209 47.1933 30.1269 47.1933Z" fill="white"/>
<path d="M18.4222 35.0186V51.3821H14.2751L8.95508 35.0186H18.4222Z" fill="white"/>
</svg>
